<svg xmlns="http://www.w3.org/2000/svg" viewBox="0 0 193 52.6">
	<g>
		<path fill="#EA9671" d="M110.2,49.8c-2.2,1.1-6.9,2.2-12.9,2.2C81.4,52,71.7,42,71.7,26.8c0-16.5,11.4-26.4,26.7-26.4
			c6,0,10.3,1.3,12.2,2.2l-2,7.3c-2.4-1-5.6-1.9-9.8-1.9c-10.2,0-17.5,6.4-17.5,18.4c0,11,6.5,18,17.4,18c3.7,0,7.6-0.7,9.9-1.9
			L110.2,49.8z"/>
		<path fill="#EA9671" d="M126.3,5.6c0,2.7-2,4.9-5.1,4.9c-3,0-5-2.2-5-4.9c0-2.8,2-5,5-5C124.4,0.6,126.3,2.8,126.3,5.6z M116.8,51.8
			V15.7h9.1v36.1H116.8z"/>
		<path fill="#EA9671" d="M157.5,50.7h8.5c-0.4-2.7-0.7-6.4-0.7-10.2V30.2l5.8,0c5.3,0,7.6,2.6,9,9.3c1.4,6.3,2.6,9.8,3.3,11.2h9.6
			c-1.1-1.8-2.3-7.6-3.8-13.9c-1.3-4.9-3.3-8.7-6.9-10v-0.2c5-1.7,9-5.7,9-12.3c0-4.3-1.7-7.8-4.4-10.2c-3.4-2.9-8.4-4.1-15.7-4.1
			c-1.6,0-3,0-4.8,0.1v7.3c0.9-0.2,2.8-0.4,5.7-0.4c6,0,10,2.8,10,8.4c0,5-3.9,7.9-10.1,7.9l-6.9,0.1c0-9.6-6.7-14.7-15.8-14.7
			c-6.7,0-12.2,1.8-15.3,3.7l1.6,6c2.4-1.7,8.6-3.3,11.7-3.3c7,0,8.6,5.2,8.6,7.4v1.1c-14.6,0-24.9,5.4-24.9,16.1
			c0,6.4,5,13.1,13.5,13.1c5.5,0,9.8-2.9,12.2-6.9C156.5,46.1,157.5,50.7,157.5,50.7z M155.7,35.8c0,0.7-0.2,1.9-0.3,2.7
			c-0.6,3.8-4.9,6.7-9.2,6.7c-3.4,0-5.9-1.8-5.9-6c0-6.4,9-8.9,15.4-8.9V35.8z"/>
	</g>
	<g>
		<path fill="#EA9671" d="M0,9.7h1.7v3.8c1.5-2.3,3.7-4.2,7.1-4.2c4.1,0,8.4,3.3,8.4,8.9v0.1c0,5.6-4.2,9-8.4,9c-3.4,0-5.7-2-7.1-4.1
			v9.1H0V9.7z M15.3,18.4L15.3,18.4c0-4.6-3.1-7.5-6.7-7.5c-3.6,0-7,3-7,7.4v0.1c0,4.4,3.4,7.4,7,7.4C12.3,25.7,15.3,23,15.3,18.4z"
			/>
		<path fill="#EA9671" d="M19.6,20.2V9.7h1.7v10.2c0,3.5,2,5.9,5.5,5.9c3.4,0,6-2.6,6-6.1V9.7h1.7v17.2h-1.7v-3.2
			c-1.1,2-3.1,3.6-6.2,3.6C22.2,27.3,19.6,24.3,19.6,20.2z"/>
		<path fill="#EA9671" d="M39.4,23.2v3.7h-1.7V2.3h1.7v11.3c1.5-2.3,3.7-4.2,7.1-4.2c4.1,0,8.4,3.3,8.4,8.9v0.1c0,5.6-4.2,9-8.4,9
			C43,27.3,40.8,25.4,39.4,23.2z M53,18.4L53,18.4c0-4.6-3.1-7.5-6.7-7.5c-3.6,0-7,3-7,7.4v0.1c0,4.4,3.4,7.4,7,7.4
			C50,25.7,53,23,53,18.4z"/>
		<path fill="#EA9671" d="M57.9,2.3h1.7v24.6h-1.7V2.3z"/>
		<path fill="#EA9671" d="M62.9,2.3H65v2.3h-2.1V2.3z M63.1,9.7h1.7v17.2h-1.7V9.7z"/>
		<path fill="#EA9671" d="M33.1,41.4L33.1,41.4c0-4.9,3.8-9.1,8.8-9.1c3.2,0,5.3,1.5,6.9,3.2l-1.2,1.2c-1.5-1.5-3.2-2.8-5.7-2.8
			c-3.9,0-6.9,3.3-6.9,7.4v0.1c0,4.1,3.1,7.4,7.1,7.4c2.4,0,4.3-1.2,5.8-2.9l1.1,1c-1.8,2-3.8,3.4-7,3.4
			C36.9,50.3,33.1,46.2,33.1,41.4z"/>
		<path fill="#EA9671" d="M50.7,44.9L50.7,44.9c0-3.6,3.1-5.7,7.5-5.7c2.4,0,4,0.3,5.7,0.7v-0.7c0-3.5-2.1-5.3-5.7-5.3
			c-2.1,0-3.8,0.6-5.4,1.4l-0.6-1.4c1.9-0.9,3.7-1.5,6.1-1.5c2.3,0,4.2,0.6,5.4,1.9c1.1,1.1,1.8,2.7,1.8,4.9v10.7h-1.6V47
			c-1.2,1.7-3.3,3.3-6.6,3.3C54.1,50.3,50.7,48.5,50.7,44.9z M63.9,43.4v-2c-1.4-0.4-3.4-0.8-5.8-0.8c-3.6,0-5.7,1.6-5.7,4v0.1
			c0,2.5,2.4,3.9,5,3.9C60.9,48.7,63.9,46.6,63.9,43.4z"/>
	</g>
</svg>
