<svg fill-rule="evenodd" xmlns="http://www.w3.org/2000/svg" stroke-miterlimit="10" clip-rule="evenodd" viewBox="0 0 515 440">
  <path fill="#54909a" fill-rule="nonzero" stroke="#49878e" d="M257.74 296.84v46.58c18.13 0 35.5-3.38 52.31-10.17l-17.43-43.16a92.88 92.88 0 01-34.88 6.75z"/>
  <path fill="#54909a" fill-rule="nonzero" stroke="#49878e" d="M292.62 290.08l17.43 43.17c16.8-6.79 29.67-14.99 42.93-27.35l-31.75-34.06a93.22 93.22 0 01-28.61 18.24z"/>
  <path fill="#54909a" fill-rule="nonzero" stroke="#49878e" d="M321.23 271.84l31.75 34.06c13.26-12.36 22.33-24.63 30.28-40.92l-41.81-20.4a93.45 93.45 0 01-20.22 27.26z"/>
  <path fill="#54909a" fill-rule="nonzero" stroke="#49878e" d="M341.45 244.59l41.8 20.4c7.95-16.3 12.03-31 13.6-49.06l-46.32-4.05a92.57 92.57 0 01-9.08 32.7z"/>
  <path fill="#54909a" fill-rule="nonzero" d="M350.89 203.69c0 2.76-.13 5.49-.36 8.19l46.33 4.05c1.58-18.06.11-33.25-4.88-50.67l-44.66 12.8a93.18 93.18 0 013.57 25.63"/>
  <path fill="none" stroke="#49878e" d="M350.89 203.69c0 2.76-.13 5.49-.36 8.19l46.33 4.05c1.58-18.06.11-33.25-4.88-50.67l-44.66 12.8a93.18 93.18 0 013.57 25.63z"/>
  <path fill="#54909a" fill-rule="nonzero" stroke="#49878e" d="M347.32 178.07l44.66-12.8c-5-17.43-13.04-33.21-24.2-47.5l-36.6 28.6a92.86 92.86 0 0116.14 31.7z"/>
  <path fill="#54909a" fill-rule="nonzero" stroke="#49878e" d="M331.17 146.38l36.61-28.6c-11.15-14.3-22.58-24.4-38.12-33.74l-23.91 39.81a93.65 93.65 0 0125.42 22.53z"/>
  <path fill="#54909a" fill-rule="nonzero" stroke="#49878e" d="M305.75 123.85l23.92-39.8c-15.54-9.34-29.83-14.68-47.68-17.83l-8.06 45.72a92.56 92.56 0 0131.82 11.91z"/>
  <path fill="#54909a" fill-rule="nonzero" d="M257.73 110.53c5.53 0 10.94.49 16.2 1.41l8.06-45.72c-17.85-3.15-33.1-3.02-50.9.44l8.86 45.58a93.65 93.65 0 0117.78-1.7"/>
  <path fill="none" stroke="#49878e" d="M257.73 110.53c5.53 0 10.94.49 16.2 1.41l8.06-45.72c-17.85-3.15-33.1-3.02-50.9.44l8.86 45.58a93.65 93.65 0 0117.78-1.7z"/>
  <path fill="#54909a" fill-rule="nonzero" stroke="#49878e" d="M239.95 112.24l-8.85-45.58c-17.8 3.46-31.99 9.05-47.36 18.66l24.6 39.38a92.59 92.59 0 0131.61-12.46z"/>
  <path fill="#54909a" fill-rule="nonzero" stroke="#49878e" d="M208.34 124.7l-24.6-39.38c-15.37 9.6-26.62 19.91-37.53 34.39l37.1 27.95a93.65 93.65 0 0125.03-22.96z"/>
  <path fill="#54909a" fill-rule="nonzero" stroke="#49878e" d="M183.3 147.66l-37.09-27.95a138.2 138.2 0 00-23.36 47.9l44.87 12.02a92.8 92.8 0 0115.59-31.97z"/>
  <path fill="#54909a" fill-rule="nonzero" stroke="#49878e" d="M118.86 218.36l46.23-4.86a94.29 94.29 0 012.63-33.87l-44.87-12.02c-4.69 17.5-5.88 32.72-3.99 50.75zM165.1 213.5l-46.24 4.86c1.9 18.02 6.23 32.65 14.46 48.8l41.43-21.1a92.54 92.54 0 01-9.66-32.56z"/>
  <path fill="#54909a" fill-rule="nonzero" stroke="#49878e" d="M174.75 246.05l-41.43 21.11c8.22 16.15 17.51 28.26 30.98 40.39l31.14-34.6a93.5 93.5 0 01-20.7-26.9zM195.45 272.95l-31.15 34.6c13.47 12.13 26.48 20.1 43.4 26.6l16.68-43.46a93.15 93.15 0 01-28.93-17.74z"/>
  <path fill="#54909a" fill-rule="nonzero" stroke="#49878e" d="M257.73 296.84c-11.75 0-23-2.18-33.35-6.15l-16.68 43.45c16.92 6.5 31.92 9.28 50.04 9.28v-46.58h0z"/>
  <path fill="#5ea1a8" fill-rule="nonzero" stroke="#49878e" d="M257.74 250.27v46.57c12.34 0 24.1-2.4 34.88-6.76l-17.45-43.19a46.42 46.42 0 01-17.43 3.38z"/>
  <path fill="#5ea1a8" fill-rule="nonzero" stroke="#49878e" d="M275.17 246.89l17.45 43.2a93.22 93.22 0 0028.6-18.25l-31.76-34.06a46.62 46.62 0 01-14.3 9.11z"/>
  <path fill="#5ea1a8" fill-rule="nonzero" stroke="#49878e" d="M289.46 237.78l31.77 34.06a93.43 93.43 0 0020.22-27.25l-41.87-20.43a46.73 46.73 0 01-10.12 13.62zM299.58 224.16l41.87 20.43a92.55 92.55 0 009.07-32.71l-46.4-4.06a46.27 46.27 0 01-4.54 16.34z"/>
  <path fill="#5ea1a8" fill-rule="nonzero" d="M304.31 203.69c0 1.39-.07 2.76-.18 4.13l46.4 4.06a93.22 93.22 0 00-3.2-33.8l-44.8 12.83a46.58 46.58 0 011.78 12.78"/>
  <path fill="none" stroke="#49878e" d="M304.31 203.69c0 1.39-.07 2.76-.18 4.13l46.4 4.06a93.22 93.22 0 00-3.2-33.8l-44.8 12.83a46.58 46.58 0 011.78 12.78z"/>
  <path fill="#5ea1a8" fill-rule="nonzero" stroke="#49878e" d="M302.54 190.91l44.78-12.84a92.86 92.86 0 00-16.15-31.7l-36.7 28.69a46.42 46.42 0 018.07 15.85z"/>
  <path fill="#5ea1a8" fill-rule="nonzero" stroke="#49878e" d="M294.47 175.06l36.7-28.68a93.66 93.66 0 00-25.42-22.53l-24 39.93c4.9 2.96 9.22 6.79 12.72 11.28z"/>
  <path fill="#5ea1a8" fill-rule="nonzero" stroke="#49878e" d="M281.76 163.78l23.99-39.93a92.54 92.54 0 00-31.82-11.9l-8.09 45.87c5.74 1 11.11 3.06 15.92 5.96z"/>
  <path fill="#5ea1a8" fill-rule="nonzero" d="M257.73 157.11c2.77 0 5.48.24 8.11.7l8.09-45.87a93.77 93.77 0 00-33.98.3l8.9 45.72c2.87-.55 5.84-.85 8.88-.85"/>
  <path fill="none" stroke="#49878e" d="M257.73 157.11c2.77 0 5.48.24 8.11.7l8.09-45.87a93.77 93.77 0 00-33.98.3l8.9 45.72c2.87-.55 5.84-.85 8.88-.85z"/>
  <path fill="#5ea1a8" fill-rule="nonzero" stroke="#49878e" d="M248.84 157.96l-8.89-45.72a92.6 92.6 0 00-31.6 12.46l24.68 39.5a46.27 46.27 0 0115.81-6.24z"/>
  <path fill="#5ea1a8" fill-rule="nonzero" stroke="#49878e" d="M233.03 164.2l-24.69-39.5a93.63 93.63 0 00-25.03 22.96l37.2 28.03a46.81 46.81 0 0112.52-11.49zM220.5 175.7l-37.2-28.04a92.8 92.8 0 00-15.58 31.97l45 12.06a46.4 46.4 0 017.78-16z"/>
  <path fill="#5ea1a8" fill-rule="nonzero" d="M211.16 203.69c0-4.15.54-8.17 1.56-12l-45-12.06a93.26 93.26 0 00-2.63 33.87l46.33-4.87a46.86 46.86 0 01-.26-4.94"/>
  <path fill="none" stroke="#49878e" d="M211.16 203.69c0-4.15.54-8.17 1.56-12l-45-12.06a93.26 93.26 0 00-2.63 33.87l46.33-4.87a46.86 46.86 0 01-.26-4.94z"/>
  <path fill="#5ea1a8" fill-rule="nonzero" stroke="#49878e" d="M216.25 224.9a46.26 46.26 0 01-4.83-16.27l-46.33 4.87a92.54 92.54 0 009.66 32.55l41.5-21.15z"/>
  <path fill="#5ea1a8" fill-rule="nonzero" stroke="#49878e" d="M216.25 224.9l-41.5 21.15a93.47 93.47 0 0020.7 26.9l31.16-34.61a46.76 46.76 0 01-10.36-13.44z"/>
  <path fill="#5ea1a8" fill-rule="nonzero" stroke="#49878e" d="M226.6 238.34l-31.15 34.61a93.15 93.15 0 0028.93 17.74l16.69-43.5a46.56 46.56 0 01-14.46-8.85z"/>
  <path fill="#5ea1a8" fill-rule="nonzero" stroke="#49878e" d="M257.73 250.27a46.44 46.44 0 01-16.66-3.08l-16.7 43.5a92.93 92.93 0 0033.36 6.15h.01v-46.57h0z"/>
  <path fill="#6cb6ba" fill-rule="nonzero" stroke="#49878e" d="M257.74 250.27c6.16 0 12.04-1.2 17.43-3.38l-17.43-43.13v46.5zM275.17 246.89a46.62 46.62 0 0014.3-9.11l-31.73-34.02 17.43 43.13z"/>
  <path fill="#6cb6ba" fill-rule="nonzero" stroke="#49878e" d="M289.46 237.78a46.73 46.73 0 0010.12-13.62l-41.84-20.4 31.72 34.02z"/>
  <path fill="#6cb6ba" fill-rule="nonzero" stroke="#49878e" d="M299.58 224.16a46.27 46.27 0 004.55-16.34l-46.39-4.06 41.84 20.4z"/>
  <path fill="#6cb6ba" fill-rule="nonzero" stroke="#49878e" d="M304.13 207.82a46.62 46.62 0 00-1.59-16.9l-44.8 12.84 46.39 4.06zM302.54 190.91a46.42 46.42 0 00-8.07-15.85l-36.73 28.7 44.8-12.85z"/>
  <path fill="#6cb6ba" fill-rule="nonzero" stroke="#49878e" d="M294.47 175.06a46.81 46.81 0 00-12.71-11.28l-24.02 39.98 36.73-28.7zM281.76 163.78a46.27 46.27 0 00-15.92-5.96l-8.1 45.94 24.02-39.98z"/>
  <path fill="#6cb6ba" fill-rule="nonzero" stroke="#49878e" d="M265.84 157.82a46.9 46.9 0 00-17 .14l8.9 45.8 8.1-45.94z"/>
  <path fill="#6cb6ba" fill-rule="nonzero" stroke="#49878e" d="M248.84 157.96a46.27 46.27 0 00-15.81 6.24l24.71 39.56-8.9-45.8z"/>
  <path fill="#6cb6ba" fill-rule="nonzero" stroke="#49878e" d="M233.03 164.2a46.81 46.81 0 00-12.52 11.5l37.23 28.06-24.71-39.56z"/>
  <path fill="#6cb6ba" fill-rule="nonzero" stroke="#49878e" d="M220.5 175.7a46.4 46.4 0 00-7.78 16l45.02 12.06-37.24-28.07z"/>
  <path fill="#6cb6ba" fill-rule="nonzero" stroke="#49878e" d="M212.72 191.7a46.61 46.61 0 00-1.3 16.93l46.32-4.87-45.02-12.07zM211.42 208.63c.6 5.8 2.29 11.3 4.83 16.27l41.5-21.14-46.33 4.87z"/>
  <path fill="#6cb6ba" fill-rule="nonzero" stroke="#49878e" d="M226.6 238.34l31.14-34.58-41.49 21.14a46.75 46.75 0 0010.36 13.44z"/>
  <path fill="#6cb6ba" fill-rule="nonzero" stroke="#49878e" d="M226.6 238.34c4.21 3.77 9.1 6.8 14.47 8.85l16.67-43.43-31.13 34.58z"/>
  <path fill="#6cb6ba" fill-rule="nonzero" stroke="#49878e" d="M241.07 247.2a46.46 46.46 0 0016.66 3.07h.01v-46.51l-16.67 43.43z"/>
  <path fill="none" stroke="#49878e" stroke-width="2" d="M180.5 80L140 13.5 180.5 80zM332 77l40.5-66.5L332 77zM389.09 268.04l70.32 33.42-70.32-33.42zM125.41 270.04L55.1 303.46l70.32-33.42zM258 351.82v77.86-77.86z"/>
  <path fill="#54909a" fill-rule="nonzero" d="M287.33 30.45h2.33v-.56c.64.5 1.38.76 2.23.76 1.1 0 2.01-.4 2.75-1.21a4.36 4.36 0 001.1-3.04c0-1.2-.38-2.23-1.12-3.04a3.54 3.54 0 00-2.73-1.23c-.85 0-1.59.25-2.23.76v-5.5h-2.33v13.06zm-40.57-8.32c-1.1 0-2 .42-2.73 1.23a4.36 4.36 0 00-1.1 3.04c0 1.2.36 2.23 1.1 3.04.73.81 1.63 1.2 2.73 1.2.85 0 1.59-.25 2.23-.75v.56h2.33V17.4h-2.33v5.49a3.52 3.52 0 00-2.23-.76zm-44.87 5.42a3 3 0 003.1 3.1c.91 0 1.65-.35 2.2-1.03v.83h2.35v-8.1h-2.34v4.57c0 .88-.65 1.57-1.5 1.57-.84 0-1.47-.69-1.47-1.57v-4.57h-2.34v5.2zm79.52-5.42c-1.1 0-2 .42-2.73 1.23a4.36 4.36 0 00-1.1 3.04c0 1.2.36 2.23 1.1 3.04.73.81 1.63 1.2 2.73 1.2.85 0 1.59-.25 2.23-.75v.56h2.33v-8.1h-2.33v.54a3.52 3.52 0 00-2.23-.76zm-57.9 0c-1.1 0-2 .42-2.74 1.23a4.36 4.36 0 00-1.1 3.04c0 1.2.36 2.23 1.1 3.04.74.81 1.64 1.2 2.74 1.2.84 0 1.58-.25 2.23-.75v.56h2.32V17.4h-2.32v5.49a3.52 3.52 0 00-2.23-.76zm76.91 0c-1.1 0-2 .42-2.74 1.23a4.36 4.36 0 00-1.1 3.04c0 1.2.37 2.23 1.1 3.04.74.81 1.64 1.2 2.74 1.2.85 0 1.58-.25 2.23-.75v.56h2.32v-8.1h-2.32v.54a3.52 3.52 0 00-2.23-.76zm19.7 7.31c.82.81 1.85 1.2 3.09 1.2 1.24 0 2.27-.39 3.1-1.2a4.1 4.1 0 001.24-3.04 4.1 4.1 0 00-1.25-3.04 4.25 4.25 0 00-3.1-1.23c-1.23 0-2.26.42-3.09 1.23a4.15 4.15 0 00-1.22 3.04c0 1.2.41 2.23 1.22 3.04zm-89.72 0c.83.81 1.85 1.2 3.1 1.2 1.24 0 2.26-.39 3.1-1.2a4.1 4.1 0 001.23-3.04 4.1 4.1 0 00-1.24-3.04 4.25 4.25 0 00-3.1-1.23c-1.24 0-2.26.42-3.09 1.23a4.15 4.15 0 00-1.22 3.04c0 1.2.41 2.23 1.22 3.04zm23.26 0c.82.81 1.85 1.2 3.1 1.2 1.23 0 2.26-.39 3.09-1.2a4.1 4.1 0 001.24-3.04 4.1 4.1 0 00-1.24-3.04 4.25 4.25 0 00-3.1-1.23c-1.24 0-2.27.42-3.1 1.23a4.15 4.15 0 00-1.22 3.04c0 1.2.42 2.23 1.23 3.04zm-63.15 1v-4.67c0-.81.6-1.46 1.37-1.46.77 0 1.35.61 1.35 1.46v4.68h2.34v-4.68c0-.81.6-1.46 1.37-1.46.77 0 1.35.61 1.35 1.46v4.68h2.34v-5.3c0-.84-.3-1.56-.9-2.14a3.06 3.06 0 00-2.22-.86c-1.1 0-1.92.41-2.44 1.24a2.8 2.8 0 00-2.45-1.24c-.88 0-1.59.3-2.1.94v-.74h-2.35v8.1h2.34zm118.17 0V17.4h-2.34v13.05h2.34zm-34.05-8.1h-2.34v8.1h2.34v-4.37c0-.95.7-1.65 1.63-1.65.33 0 .62.07.85.21v-2.48c-.05-.02-.14-.02-.27-.02-.95 0-1.7.36-2.21 1.06v-.84zm-8.73 2.04H267v3.5c0 .73.27 1.34.81 1.83.56.49 1.23.74 2.02.74h1.38v-2.2h-1c-.5 0-.89-.36-.89-.84v-3.03h1.9v-2.03h-1.9v-1.57h-2.32v1.57h-1.11v2.03zm-55 6.07h2.35v-4.6c0-.87.64-1.54 1.49-1.54s1.48.67 1.48 1.55v4.59h2.34v-5.2c0-.89-.31-1.62-.9-2.22-.6-.6-1.32-.9-2.2-.9-.92 0-1.66.34-2.21 1.03v-.81h-2.34v8.1zm99.13 0h2.34v-4.6c0-.87.67-1.54 1.55-1.54.86 0 1.53.67 1.53 1.55v4.59h2.34v-5.2c0-.89-.3-1.62-.92-2.22-.6-.6-1.35-.9-2.23-.9-.95 0-1.71.34-2.27 1.05V17.4h-2.34v13.05zm-76.53-2.1a1.9 1.9 0 01-1.9-1.95c0-1.1.83-1.96 1.9-1.96 1.08 0 1.9.86 1.9 1.96a1.9 1.9 0 01-1.9 1.94zm23.25 0a1.9 1.9 0 01-1.89-1.95c0-1.1.83-1.96 1.9-1.96 1.07 0 1.9.86 1.9 1.96a1.9 1.9 0 01-1.9 1.94zm42.27-1.97c0-1.08.79-1.94 1.8-1.94 1 0 1.8.86 1.8 1.94 0 1.1-.8 1.96-1.8 1.96-1.01 0-1.8-.86-1.8-1.96zm24.19 1.96a1.9 1.9 0 01-1.9-1.94c0-1.1.84-1.96 1.9-1.96 1.08 0 1.9.86 1.9 1.96a1.9 1.9 0 01-1.9 1.94zm-31.72-3.9c1.01 0 1.8.86 1.8 1.94 0 1.1-.79 1.96-1.8 1.96-1 0-1.8-.86-1.8-1.96 0-1.08.81-1.94 1.8-1.94zm-11.48 1.94c0-1.08.79-1.94 1.8-1.94 1 0 1.8.86 1.8 1.94 0 1.1-.8 1.96-1.8 1.96-1.01 0-1.8-.86-1.8-1.96zm-57.9 0c0-1.08.78-1.94 1.8-1.94 1 0 1.8.86 1.8 1.94 0 1.1-.8 1.96-1.8 1.96-1.02 0-1.8-.86-1.8-1.96zm23.25 0c0-1.08.79-1.94 1.8-1.94 1 0 1.8.86 1.8 1.94 0 1.1-.8 1.96-1.8 1.96-1.01 0-1.8-.86-1.8-1.96zM450.49 156.25c.84 0 1.58-.25 2.23-.76v.9c0 .96-.8 1.71-1.86 1.71-.72 0-1.38-.37-1.65-.9l-2.3.54c.25.74.75 1.35 1.49 1.84.75.49 1.6.72 2.52.72 1.17 0 2.16-.38 2.93-1.13a3.67 3.67 0 001.19-2.81v-8.4h-2.32v.53a3.52 3.52 0 00-2.23-.75c-1.1 0-2 .41-2.74 1.22a4.36 4.36 0 00-1.1 3.04c0 1.2.36 2.23 1.1 3.04.74.81 1.64 1.21 2.74 1.21zm19.02 0c.85 0 1.59-.25 2.23-.76v.9c0 .96-.79 1.71-1.85 1.71-.72 0-1.39-.37-1.66-.9l-2.3.54c.25.74.76 1.35 1.5 1.84.75.49 1.6.72 2.51.72 1.17 0 2.16-.38 2.94-1.13a3.67 3.67 0 001.19-2.81v-8.4h-2.33v.53a3.52 3.52 0 00-2.23-.75c-1.1 0-2 .41-2.73 1.22a4.36 4.36 0 00-1.1 3.04c0 1.2.36 2.23 1.1 3.04.73.81 1.63 1.21 2.73 1.21zm-58.14 3.85v-4.6c.65.5 1.39.75 2.23.75 1.1 0 2-.4 2.74-1.2a4.37 4.37 0 001.12-3.05c0-1.2-.38-2.23-1.12-3.04a3.54 3.54 0 00-2.74-1.22c-.84 0-1.58.25-2.23.75v-.54h-2.32v12.15h2.32zm46.01-5.06c.83.81 1.85 1.21 3.1 1.21 1.24 0 2.26-.4 3.1-1.2a4.1 4.1 0 001.23-3.05 4.1 4.1 0 00-1.24-3.04 4.25 4.25 0 00-3.1-1.22 4.15 4.15 0 00-4.32 4.27c0 1.2.42 2.22 1.23 3.03zm-25.9-7.3c-1.1 0-2 .41-2.74 1.22a4.36 4.36 0 00-1.1 3.04c0 1.2.36 2.23 1.1 3.04.74.81 1.64 1.21 2.74 1.21.84 0 1.58-.25 2.23-.76v.56h2.32V143h-2.32v5.5a3.52 3.52 0 00-2.23-.76zm9.5 0c-1.1 0-2 .41-2.73 1.22a4.36 4.36 0 00-1.1 3.04c0 1.2.36 2.23 1.1 3.04.73.81 1.63 1.21 2.73 1.21.85 0 1.59-.25 2.23-.76v.56h2.33v-8.1h-2.33v.54a3.52 3.52 0 00-2.23-.75zm46.32 2.79a4.31 4.31 0 00-4.1-2.8c-1.25 0-2.28.42-3.1 1.23a4.15 4.15 0 00-1.23 3.04 4.15 4.15 0 004.32 4.25 4.28 4.28 0 004.1-2.79l-2.35-.68a1.82 1.82 0 01-1.75 1.17 1.9 1.9 0 01-1.89-1.97 1.9 1.9 0 011.9-1.94c.78 0 1.47.47 1.74 1.19l2.36-.7zm-60.5 2.32c.05-.24.07-.52.07-.85a4.1 4.1 0 00-1.24-3.04 4.15 4.15 0 00-3.04-1.22 4.15 4.15 0 00-4.28 4.27c0 1.2.4 2.22 1.25 3.03.85.81 1.9 1.21 3.15 1.21 1.73 0 3.17-.85 3.89-2.2l-2.25-.52a2 2 0 01-1.6.74c-.96 0-1.71-.58-1.98-1.42h6.03zm62.4 2.2c.83.8 1.86 1.2 3.1 1.2s2.27-.4 3.1-1.2a4.1 4.1 0 001.24-3.05 4.1 4.1 0 00-1.24-3.04 4.25 4.25 0 00-3.1-1.22 4.15 4.15 0 00-4.32 4.27c0 1.2.41 2.22 1.22 3.03zm-11.43 1v-8.1h-2.34v8.1h2.34zm-47.7-4.07c0-1.08.8-1.94 1.8-1.94 1.01 0 1.8.86 1.8 1.94 0 1.1-.79 1.97-1.8 1.97-1 0-1.8-.87-1.8-1.97zm19.01.04c0-1.1.8-1.98 1.8-1.98 1.01 0 1.8.88 1.8 1.98 0 1.08-.79 1.93-1.8 1.93-1 0-1.8-.85-1.8-1.93zm43.22 1.93a1.9 1.9 0 01-1.89-1.95c0-1.1.83-1.96 1.89-1.96 1.08 0 1.9.86 1.9 1.96a1.9 1.9 0 01-1.9 1.95zm-52.72-1.97c0-1.08.79-1.94 1.8-1.94 1 0 1.8.86 1.8 1.94 0 1.1-.8 1.97-1.8 1.97-1.01 0-1.8-.87-1.8-1.97zm20.9 1.97a1.9 1.9 0 01-1.9-1.95c0-1.1.83-1.96 1.9-1.96 1.08 0 1.9.86 1.9 1.96a1.9 1.9 0 01-1.9 1.95zm7.63-1.93c0-1.1.79-1.98 1.8-1.98 1 0 1.8.88 1.8 1.98 0 1.08-.8 1.93-1.8 1.93-1.01 0-1.8-.85-1.8-1.93zm-54.9-1.98c1 0 1.8.88 1.8 1.98 0 1.08-.8 1.93-1.8 1.93s-1.8-.85-1.8-1.93c0-.56.18-1.03.52-1.4.36-.38.8-.58 1.28-.58zm7.56 1.06a1.98 1.98 0 011.83-1.37 2 2 0 011.9 1.37h-3.73zm54.79-4.71c.27.27.63.4 1.04.4a1.38 1.38 0 001.44-1.45 1.4 1.4 0 00-1.44-1.44c-.41 0-.77.15-1.04.42s-.4.6-.4 1.02c0 .42.13.78.4 1.05zm-16 .16l3.7-1.66-1.04-1.87-3.4 2.25.74 1.28zm-8.03-20.2v9.13c0 .45-.4.79-.9.79h-.61v2.23h.8c.85 0 1.57-.25 2.15-.77.6-.52.88-1.15.88-1.91v-9.47h-2.32zm-22.34 12.15v-4.6c.65.5 1.39.75 2.23.75 1.1 0 2-.4 2.74-1.2a4.37 4.37 0 001.12-3.05c0-1.2-.38-2.23-1.12-3.04a3.54 3.54 0 00-2.74-1.22c-.84 0-1.58.25-2.23.75v-.54h-2.32v12.15h2.32zm34.3-7.25c.05-.24.06-.52.06-.85a4.1 4.1 0 00-1.24-3.04 4.15 4.15 0 00-3.04-1.22 4.15 4.15 0 00-4.28 4.27c0 1.2.41 2.22 1.26 3.03.84.81 1.89 1.21 3.15 1.21 1.72 0 3.16-.85 3.88-2.2l-2.25-.52a2 2 0 01-1.6.74c-.95 0-1.7-.58-1.98-1.42h6.03zm7.91 2.2c.83.8 1.86 1.2 3.1 1.2s2.27-.4 3.1-1.2a4.1 4.1 0 001.24-3.05 4.1 4.1 0 00-1.25-3.04 4.25 4.25 0 00-3.1-1.22 4.15 4.15 0 00-4.32 4.27c0 1.2.42 2.22 1.23 3.03zm-28.51 0c.83.8 1.85 1.2 3.1 1.2 1.24 0 2.26-.4 3.1-1.2a4.1 4.1 0 001.23-3.05 4.1 4.1 0 00-1.24-3.04 4.25 4.25 0 00-3.1-1.22 4.15 4.15 0 00-4.32 4.27c0 1.2.42 2.22 1.23 3.03zm21.15-5.06h1.12v3.49c0 .74.27 1.35.8 1.83.56.49 1.23.74 2.02.74h1.39v-2.2h-1.01c-.5 0-.88-.35-.88-.84v-3.02h1.89v-2.04h-1.9v-1.56h-2.31v1.56h-1.12v2.04zm-25.33-2.04h-2.34v8.1h2.34v-4.37c0-.96.7-1.66 1.64-1.66.33 0 .61.07.85.22v-2.49l-.27-.01c-.96 0-1.7.36-2.22 1.06v-.85zm35.79 6a1.9 1.9 0 01-1.9-1.95c0-1.1.84-1.96 1.9-1.96 1.08 0 1.9.86 1.9 1.96a1.9 1.9 0 01-1.9 1.95zm-43.47-3.91c1 0 1.8.88 1.8 1.98 0 1.08-.8 1.93-1.8 1.93s-1.8-.85-1.8-1.93c0-.56.18-1.03.52-1.4.36-.38.8-.58 1.28-.58zm14.96 3.9a1.9 1.9 0 01-1.9-1.94c0-1.1.83-1.96 1.9-1.96 1.08 0 1.9.86 1.9 1.96a1.9 1.9 0 01-1.9 1.95zm11.46-2.84a1.98 1.98 0 011.84-1.37 2 2 0 011.89 1.37h-3.73zm-4.75-7.2c-.85 0-1.46.63-1.46 1.44 0 .81.61 1.44 1.46 1.44.81 0 1.44-.63 1.44-1.44 0-.8-.63-1.44-1.44-1.44zM36.13 147.74c-1.1 0-2 .41-2.74 1.22a4.36 4.36 0 00-1.1 3.04c0 1.2.36 2.23 1.1 3.04.74.81 1.64 1.21 2.74 1.21.84 0 1.58-.25 2.23-.76v.56h2.32V143h-2.32v5.5a3.52 3.52 0 00-2.23-.76zm6.89 7.3c.83.81 1.85 1.21 3.1 1.21 1.24 0 2.26-.4 3.1-1.2a4.1 4.1 0 001.23-3.05 4.1 4.1 0 00-1.24-3.04 4.25 4.25 0 00-3.1-1.22A4.15 4.15 0 0041.8 152c0 1.2.42 2.22 1.23 3.03zm50.11-2.2c.06-.23.07-.51.07-.84a4.1 4.1 0 00-1.24-3.04 4.15 4.15 0 00-3.04-1.22 4.15 4.15 0 00-4.28 4.27c0 1.2.41 2.22 1.26 3.03.84.81 1.89 1.21 3.15 1.21 1.72 0 3.16-.85 3.88-2.2l-2.25-.52a2 2 0 01-1.6.74c-.95 0-1.7-.58-1.98-1.42h6.03zm-24.2 0c.05-.23.06-.51.06-.84a4.1 4.1 0 00-1.24-3.04 4.15 4.15 0 00-3.04-1.22 4.15 4.15 0 00-4.28 4.27c0 1.2.41 2.22 1.26 3.03.84.81 1.89 1.21 3.15 1.21 1.72 0 3.16-.85 3.88-2.2l-2.25-.52a2 2 0 01-1.6.74c-.95 0-1.7-.58-1.98-1.42h6.03zm-9.19-2.31a4.31 4.31 0 00-4.1-2.8c-1.24 0-2.27.42-3.1 1.23a4.15 4.15 0 00-1.22 3.04 4.15 4.15 0 004.32 4.25 4.28 4.28 0 004.1-2.79l-2.36-.68a1.82 1.82 0 01-1.74 1.17 1.9 1.9 0 01-1.9-1.97 1.9 1.9 0 011.9-1.94c.79 0 1.47.47 1.74 1.19l2.36-.7zm18.76-.54h1.11v3.49c0 .74.27 1.35.81 1.83.56.49 1.23.74 2.02.74h1.39v-2.2h-1.01c-.5 0-.88-.35-.88-.84v-3.02h1.89v-2.04h-1.9v-1.56h-2.32v1.56H78.5V150zm-8.48 6.06h2.34v-4.59c0-.88.65-1.55 1.5-1.55.84 0 1.47.67 1.47 1.55v4.6h2.34v-5.21c0-.88-.3-1.62-.9-2.21-.6-.6-1.31-.9-2.2-.9-.91 0-1.65.34-2.21 1.02v-.8h-2.34v8.1zm-35.3-4.07c0-1.08.8-1.94 1.8-1.94 1.01 0 1.8.86 1.8 1.94 0 1.1-.79 1.97-1.8 1.97-1 0-1.8-.87-1.8-1.97zm11.4 1.97a1.9 1.9 0 01-1.9-1.95c0-1.1.83-1.96 1.9-1.96 1.08 0 1.9.86 1.9 1.96a1.9 1.9 0 01-1.9 1.95zm40.98-2.85a1.98 1.98 0 011.84-1.37 2 2 0 011.89 1.37H87.1zm-24.2 0a1.98 1.98 0 011.83-1.37 2 2 0 011.89 1.37h-3.73zM3.86 126.14c-1.1 0-2 .41-2.74 1.22a4.36 4.36 0 00-1.1 3.04c0 1.2.37 2.23 1.1 3.04.74.81 1.64 1.21 2.74 1.21.85 0 1.58-.25 2.23-.76v.56h2.32V121.4H6.1v5.5a3.52 3.52 0 00-2.23-.76zm21.62 2.21c-.2-1.37-1.37-2.21-3.26-2.21-1.94 0-3.28.82-3.28 2.6 0 1.23.63 1.91 2.15 2.35l1.47.43c.54.16.81.38.81.63 0 .36-.43.6-1.06.6-.8 0-1.26-.28-1.39-.82l-2.14.3c.22 1.52 1.44 2.42 3.48 2.42 2.03 0 3.34-.9 3.34-2.61 0-1.22-.66-1.96-2.32-2.48l-1.44-.47c-.43-.15-.65-.33-.65-.54 0-.34.31-.52.94-.52.67 0 1.06.23 1.2.68l2.15-.36zm92.46 5.1c.83.8 1.86 1.2 3.1 1.2s2.27-.4 3.1-1.2a4.1 4.1 0 001.24-3.05 4.1 4.1 0 00-1.24-3.04 4.25 4.25 0 00-3.1-1.22 4.15 4.15 0 00-4.32 4.27c0 1.2.41 2.22 1.22 3.03zm-63.88 0c.83.8 1.86 1.2 3.1 1.2s2.27-.4 3.1-1.2a4.1 4.1 0 001.24-3.05 4.1 4.1 0 00-1.25-3.04 4.25 4.25 0 00-3.1-1.22 4.15 4.15 0 00-4.32 4.27c0 1.2.42 2.22 1.23 3.03zm46.95-2.2c.05-.24.07-.52.07-.85a4.1 4.1 0 00-1.24-3.04 4.15 4.15 0 00-3.05-1.22 4.15 4.15 0 00-4.28 4.27c0 1.2.41 2.22 1.26 3.03.85.81 1.89 1.21 3.15 1.21 1.73 0 3.17-.85 3.89-2.2l-2.25-.52a2 2 0 01-1.6.74c-.96 0-1.71-.58-1.98-1.42h6.03zm-66.12 0c.06-.24.07-.52.07-.85a4.1 4.1 0 00-1.24-3.04 4.15 4.15 0 00-3.04-1.22 4.15 4.15 0 00-4.28 4.27c0 1.2.41 2.22 1.26 3.03.84.81 1.89 1.21 3.15 1.21 1.72 0 3.16-.85 3.88-2.2l-2.25-.52a2 2 0 01-1.6.74c-.95 0-1.7-.58-1.98-1.42h6.03zm-16.86 0c.05-.24.07-.52.07-.85a4.1 4.1 0 00-1.24-3.04 4.15 4.15 0 00-3.05-1.22 4.15 4.15 0 00-4.28 4.27c0 1.2.41 2.22 1.26 3.03.85.81 1.89 1.21 3.15 1.21 1.73 0 3.17-.85 3.89-2.2l-2.25-.52a2 2 0 01-1.6.74c-.96 0-1.71-.58-1.98-1.42h6.03zm84.07 3.2h2.34v-4.59c0-.88.65-1.55 1.5-1.55.84 0 1.47.67 1.47 1.55v4.6h2.34v-5.21c0-.88-.3-1.62-.9-2.21-.59-.6-1.31-.9-2.2-.9-.91 0-1.65.34-2.2 1.02v-.8h-2.35v8.1zm-66.11 0h2.34v-4.59c0-.88.65-1.55 1.5-1.55.84 0 1.47.67 1.47 1.55v4.6h2.34v-5.21c0-.88-.3-1.62-.9-2.21-.6-.6-1.31-.9-2.2-.9-.91 0-1.65.34-2.21 1.02v-.8H36v8.1zm45.29 0v-4.68c0-.8.6-1.46 1.37-1.46.77 0 1.35.62 1.35 1.46v4.68h2.34v-4.68c0-.8.59-1.46 1.36-1.46.78 0 1.35.62 1.35 1.46v4.68h2.34v-5.29c0-.85-.3-1.57-.9-2.14a3.06 3.06 0 00-2.21-.87c-1.1 0-1.93.42-2.45 1.25a2.8 2.8 0 00-2.45-1.25c-.88 0-1.58.31-2.1.94v-.74h-2.34v8.1h2.34zm-16.33 0V121.4h-2.34v13.05h2.34zm4.02 0h2.25l3.24-8.1h-2.42l-1.94 5.2-1.96-5.2h-2.41l3.24 8.1zm8.62 0v-8.1h-2.34v8.1h2.34zm-30.31 0h2.25l3.24-8.1h-2.42l-1.94 5.2-1.96-5.2h-2.41l3.24 8.1zm63.3-6.06h1.12v3.49c0 .74.27 1.35.8 1.83.57.49 1.23.74 2.02.74h1.39v-2.2h-1c-.51 0-.89-.35-.89-.84v-3.02h1.89v-2.04h-1.89v-1.56h-2.32v1.56h-1.12v2.04zm-53.42 3.96a1.9 1.9 0 01-1.9-1.95c0-1.1.84-1.96 1.9-1.96 1.08 0 1.9.86 1.9 1.96a1.9 1.9 0 01-1.9 1.95zm63.88 0a1.9 1.9 0 01-1.89-1.95c0-1.1.83-1.96 1.89-1.96 1.08 0 1.9.86 1.9 1.96a1.9 1.9 0 01-1.9 1.95zM2.47 130.38c0-1.08.79-1.94 1.8-1.94 1 0 1.8.86 1.8 1.94 0 1.1-.8 1.97-1.8 1.97-1.01 0-1.8-.87-1.8-1.97zm92.52-.88a1.98 1.98 0 011.83-1.37 2 2 0 011.9 1.37h-3.73zm-66.12 0a1.98 1.98 0 011.84-1.37 2 2 0 011.89 1.37h-3.73zm-16.86 0a1.98 1.98 0 011.83-1.37 2 2 0 011.9 1.37H12zm63.37-4.71c.27.27.63.4 1.05.4a1.38 1.38 0 001.44-1.45c0-.41-.15-.75-.42-1.02a1.4 1.4 0 00-1.02-.42c-.42 0-.78.15-1.05.42s-.4.6-.4 1.02c0 .42.13.78.4 1.05zM392.5 373.26c.85 0 1.6-.25 2.24-.76v.9c0 .96-.8 1.71-1.85 1.71-.72 0-1.39-.38-1.66-.9l-2.3.54c.25.74.75 1.35 1.49 1.84.76.48 1.6.72 2.52.72 1.17 0 2.16-.38 2.93-1.14a3.67 3.67 0 001.2-2.8v-8.41h-2.33v.54a3.52 3.52 0 00-2.23-.76c-1.1 0-2 .42-2.74 1.23a4.36 4.36 0 00-1.1 3.04c0 1.2.36 2.23 1.1 3.04.74.81 1.64 1.2 2.74 1.2zm-19.02 0c.85 0 1.59-.25 2.23-.76v.9c0 .96-.79 1.71-1.85 1.71-.72 0-1.39-.38-1.66-.9l-2.3.54c.25.74.76 1.35 1.5 1.84.75.48 1.6.72 2.51.72 1.17 0 2.16-.38 2.94-1.14a3.67 3.67 0 001.19-2.8v-8.41h-2.33v.54a3.52 3.52 0 00-2.23-.76c-1.1 0-2 .42-2.73 1.23a4.36 4.36 0 00-1.1 3.04c0 1.2.36 2.23 1.1 3.04.73.81 1.63 1.2 2.73 1.2zm-39.11 3.85v-4.6c.65.5 1.38.75 2.23.75 1.1 0 2-.4 2.74-1.2a4.37 4.37 0 001.11-3.05c0-1.2-.38-2.23-1.11-3.04a3.54 3.54 0 00-2.74-1.23c-.85 0-1.58.26-2.23.76v-.54h-2.32v12.15h2.32zm46-5.06c.83.81 1.86 1.2 3.1 1.2s2.27-.39 3.1-1.2a4.1 4.1 0 001.24-3.04 4.1 4.1 0 00-1.24-3.04 4.25 4.25 0 00-3.1-1.23c-1.24 0-2.27.42-3.1 1.23a4.15 4.15 0 00-1.22 3.04c0 1.2.42 2.23 1.23 3.04zm-25.9-7.3c-1.1 0-2 .4-2.73 1.22a4.36 4.36 0 00-1.1 3.04c0 1.2.36 2.23 1.1 3.04.74.81 1.64 1.2 2.73 1.2.85 0 1.59-.24 2.24-.75v.56h2.32v-13.05h-2.32v5.49a3.52 3.52 0 00-2.24-.76zm9.5 0c-1.09 0-1.99.4-2.73 1.22a4.36 4.36 0 00-1.1 3.04c0 1.2.36 2.23 1.1 3.04.74.81 1.64 1.2 2.74 1.2.84 0 1.58-.24 2.23-.75v.56h2.32v-8.1h-2.32v.54a3.52 3.52 0 00-2.23-.76zm50.84 0c-1.1 0-2 .4-2.74 1.22a4.36 4.36 0 00-1.1 3.04c0 1.2.37 2.23 1.1 3.04.74.81 1.64 1.2 2.74 1.2.85 0 1.58-.24 2.23-.75v.56h2.32v-8.1h-2.32v.54a3.52 3.52 0 00-2.23-.76zm-4.52 2.78a4.31 4.31 0 00-4.1-2.79c-1.24 0-2.27.42-3.1 1.23a4.15 4.15 0 00-1.22 3.04 4.15 4.15 0 004.32 4.25 4.28 4.28 0 004.1-2.8l-2.36-.68a1.82 1.82 0 01-1.74 1.17 1.9 1.9 0 01-1.9-1.96 1.9 1.9 0 011.9-1.94c.79 0 1.47.47 1.74 1.19l2.36-.7zm-60.5 2.33c.06-.24.08-.53.08-.85a4.1 4.1 0 00-1.25-3.04 4.15 4.15 0 00-3.04-1.23c-1.2 0-2.23.42-3.06 1.23a4.15 4.15 0 00-1.22 3.04c0 1.2.41 2.23 1.26 3.04.84.81 1.89 1.2 3.15 1.2 1.73 0 3.17-.84 3.89-2.19l-2.25-.52a2 2 0 01-1.6.74c-.96 0-1.72-.58-1.99-1.42h6.03zm50.98 3.2v-8.1h-2.34v8.1h2.34zm-17.3-2.1a1.9 1.9 0 01-1.89-1.95c0-1.1.83-1.96 1.9-1.96 1.07 0 1.9.86 1.9 1.96a1.9 1.9 0 01-1.9 1.94zm-30.4-1.97c0-1.08.8-1.94 1.8-1.94s1.8.86 1.8 1.94c0 1.1-.8 1.96-1.8 1.96s-1.8-.86-1.8-1.96zm-16.87-1.94c1.01 0 1.8.88 1.8 1.98 0 1.08-.79 1.92-1.8 1.92-.99 0-1.8-.84-1.8-1.92 0-.56.18-1.03.53-1.4.36-.38.79-.58 1.27-.58zm54.9 1.98c0-1.1.8-1.98 1.8-1.98 1.01 0 1.8.88 1.8 1.98 0 1.08-.79 1.92-1.8 1.92-1 0-1.8-.84-1.8-1.92zm-28.53-.04c0-1.08.8-1.94 1.8-1.94 1.01 0 1.8.86 1.8 1.94 0 1.1-.79 1.96-1.8 1.96-1 0-1.8-.86-1.8-1.96zm50.84 0c0-1.08.79-1.94 1.8-1.94 1 0 1.8.86 1.8 1.94 0 1.1-.8 1.96-1.8 1.96-1.01 0-1.8-.86-1.8-1.96zm-41.33.04c0-1.1.79-1.98 1.8-1.98 1 0 1.8.88 1.8 1.98 0 1.08-.8 1.92-1.8 1.92-1.01 0-1.8-.84-1.8-1.92zm-28.32-.92a1.98 1.98 0 011.84-1.37 2 2 0 011.89 1.37h-3.73zm54.8-4.72c.27.27.63.4 1.04.4a1.38 1.38 0 001.44-1.44 1.4 1.4 0 00-1.44-1.44c-.41 0-.77.14-1.04.41-.27.27-.4.62-.4 1.03 0 .41.13.77.4 1.04zm-16 .17l3.7-1.66-1.04-1.87-3.4 2.25.73 1.28zm7.6-11.9c.85 0 1.6-.25 2.24-.76v.9c0 .96-.8 1.71-1.85 1.71-.72 0-1.39-.38-1.66-.9l-2.3.54c.25.74.75 1.35 1.49 1.84.76.48 1.6.72 2.52.72 1.17 0 2.16-.38 2.93-1.14a3.67 3.67 0 001.2-2.8v-8.41h-2.33v.54a3.52 3.52 0 00-2.23-.76c-1.1 0-2 .42-2.74 1.23a4.36 4.36 0 00-1.1 3.04c0 1.2.36 2.23 1.1 3.04.74.81 1.64 1.2 2.74 1.2zm-53.07-8.52c-1.1 0-2 .42-2.74 1.23a4.36 4.36 0 00-1.1 3.04c0 1.2.36 2.23 1.1 3.04.74.81 1.64 1.2 2.74 1.2.84 0 1.58-.24 2.23-.75v.56h2.32v-8.1h-2.32v.54a3.52 3.52 0 00-2.23-.76zm43.57 0c-1.1 0-2 .42-2.73 1.23a4.36 4.36 0 00-1.1 3.04c0 1.2.36 2.23 1.1 3.04.74.81 1.64 1.2 2.73 1.2.85 0 1.59-.24 2.24-.75v.56h2.32v-8.1h-2.32v.54a3.52 3.52 0 00-2.24-.76zm-37.65 8.32h2.32v-.56c.65.5 1.39.76 2.23.76 1.1 0 2.02-.4 2.76-1.2a4.36 4.36 0 001.1-3.05c0-1.2-.38-2.23-1.12-3.04a3.54 3.54 0 00-2.74-1.23c-.84 0-1.58.26-2.23.76v-5.49h-2.32v13.05zm28.15-8.32c-1.1 0-2 .42-2.74 1.23a4.36 4.36 0 00-1.1 3.04c0 1.2.37 2.23 1.1 3.04.74.81 1.64 1.2 2.74 1.2.85 0 1.58-.24 2.23-.75v.56h2.32v-13.05h-2.32v5.49a3.52 3.52 0 00-2.23-.76zm33.17 5.12c.06-.24.08-.53.08-.85a4.1 4.1 0 00-1.25-3.04 4.15 4.15 0 00-3.04-1.23c-1.2 0-2.23.42-3.06 1.23a4.15 4.15 0 00-1.22 3.04c0 1.2.41 2.23 1.26 3.04.84.81 1.89 1.2 3.15 1.2 1.73 0 3.17-.84 3.89-2.19l-2.25-.52a2 2 0 01-1.6.74c-.96 0-1.72-.58-1.99-1.42h6.03zm-50.85 2.2c.83.8 1.86 1.2 3.1 1.2s2.27-.4 3.1-1.2a4.1 4.1 0 001.24-3.05 4.1 4.1 0 00-1.24-3.04 4.25 4.25 0 00-3.1-1.23c-1.24 0-2.27.42-3.1 1.23a4.15 4.15 0 00-1.22 3.04c0 1.2.41 2.23 1.22 3.04zm54.3 1v-4.68c0-.81.59-1.46 1.36-1.46.77 0 1.35.61 1.35 1.46v4.68h2.34v-4.68c0-.81.6-1.46 1.37-1.46.77 0 1.35.61 1.35 1.46v4.68h2.34v-5.3c0-.84-.3-1.56-.9-2.13a3.06 3.06 0 00-2.22-.87c-1.1 0-1.92.42-2.44 1.24a2.8 2.8 0 00-2.45-1.24c-.88 0-1.59.3-2.1.94v-.74h-2.35v8.1h2.34zm-43.4-8.1h-2.35v8.1h2.34v-4.37c0-.96.7-1.66 1.64-1.66.33 0 .61.07.85.22v-2.49c-.06-.02-.15-.02-.27-.02-.96 0-1.7.36-2.22 1.07v-.85zm-7.8 6a1.9 1.9 0 01-1.89-1.95c0-1.1.83-1.96 1.89-1.96 1.08 0 1.9.86 1.9 1.96a1.9 1.9 0 01-1.9 1.94zm32.18-1.93c0-1.1.8-1.98 1.8-1.98 1.01 0 1.8.88 1.8 1.98 0 1.08-.79 1.92-1.8 1.92-1 0-1.8-.84-1.8-1.92zm-9.5-.04c0-1.08.8-1.94 1.8-1.94s1.8.86 1.8 1.94c0 1.1-.8 1.96-1.8 1.96s-1.8-.86-1.8-1.96zm-9.5 0c0-1.08.79-1.94 1.8-1.94 1 0 1.8.86 1.8 1.94 0 1.1-.8 1.96-1.8 1.96-1.01 0-1.8-.86-1.8-1.96zm-34.08 0c0-1.08.8-1.94 1.8-1.94 1.01 0 1.8.86 1.8 1.94 0 1.1-.79 1.96-1.8 1.96-1 0-1.8-.86-1.8-1.96zm11.49-1.94c1 0 1.8.86 1.8 1.94 0 1.1-.8 1.96-1.8 1.96-1.01 0-1.8-.86-1.8-1.96 0-1.08.8-1.94 1.8-1.94zm51.13 1.06a1.98 1.98 0 011.84-1.37 2 2 0 011.89 1.37h-3.73zM110.97 377.11v-4.6c.65.5 1.38.75 2.23.75 1.1 0 2-.4 2.74-1.2a4.37 4.37 0 001.11-3.05c0-1.2-.37-2.23-1.11-3.04a3.54 3.54 0 00-2.74-1.23c-.85 0-1.58.26-2.23.76v-.54h-2.32v12.15h2.32zm39.94-9.58a4.31 4.31 0 00-4.1-2.79c-1.25 0-2.27.42-3.1 1.23a4.15 4.15 0 00-1.22 3.04 4.15 4.15 0 004.32 4.25 4.28 4.28 0 004.1-2.8l-2.36-.68a1.82 1.82 0 01-1.74 1.17 1.9 1.9 0 01-1.9-1.96 1.9 1.9 0 011.9-1.94c.79 0 1.47.47 1.74 1.19l2.36-.7zm-61.92-2.79c-1.1 0-2 .42-2.73 1.23a4.36 4.36 0 00-1.1 3.04c0 1.2.36 2.23 1.1 3.04.73.81 1.63 1.2 2.73 1.2.85 0 1.59-.24 2.23-.75v.56h2.33v-13.05h-2.33v5.49a3.52 3.52 0 00-2.23-.76zm38.29 8.52c.84 0 1.58-.25 2.23-.76v.56h2.32v-8.1h-2.32v.54a3.52 3.52 0 00-2.23-.76c-1.1 0-2 .42-2.74 1.23a4.36 4.36 0 00-1.1 3.04c0 1.2.36 2.23 1.1 3.04.74.81 1.64 1.2 2.74 1.2zm28.15-8.52c-1.1 0-2 .42-2.74 1.23a4.36 4.36 0 00-1.1 3.04c0 1.2.36 2.23 1.1 3.04.74.81 1.64 1.2 2.74 1.2.84 0 1.58-.24 2.23-.75v.56h2.32v-8.1h-2.32v.54a3.52 3.52 0 00-2.23-.76zm-56.93 0c-1.1 0-2 .42-2.74 1.23a4.36 4.36 0 00-1.1 3.04c0 1.2.36 2.23 1.1 3.04.74.81 1.64 1.2 2.74 1.2.84 0 1.58-.24 2.23-.75v.56h2.32v-8.1h-2.32v.54a3.52 3.52 0 00-2.23-.76zm42.89 8.32v-8.1h-2.34v8.1h2.34zm-20.9-8.1h-2.34v8.1h2.34v-4.37c0-.96.7-1.66 1.64-1.66.32 0 .61.07.85.22v-2.49c-.06-.02-.15-.02-.27-.02-.96 0-1.7.36-2.22 1.07v-.85zm12.17 2.03h1.12v3.5c0 .73.27 1.35.8 1.83.56.49 1.23.74 2.02.74H138v-2.2h-1.01c-.5 0-.88-.36-.88-.84v-3.03h1.89v-2.03h-1.9v-1.57h-2.31v1.57h-1.12v2.03zm-45.07 2c0-1.08.79-1.94 1.8-1.94 1 0 1.8.86 1.8 1.94 0 1.1-.8 1.96-1.8 1.96-1.01 0-1.8-.86-1.8-1.96zm9.5 0c0-1.08.8-1.94 1.8-1.94 1.01 0 1.8.86 1.8 1.94 0 1.1-.79 1.96-1.8 1.96-1 0-1.8-.86-1.8-1.96zm28.78 0c0-1.08.8-1.94 1.8-1.94 1.01 0 1.8.86 1.8 1.94 0 1.1-.79 1.96-1.8 1.96-1 0-1.8-.86-1.8-1.96zm28.15 0c0-1.08.8-1.94 1.8-1.94 1.01 0 1.8.86 1.8 1.94 0 1.1-.79 1.96-1.8 1.96-1 0-1.8-.86-1.8-1.96zm-41.21-1.94c1 0 1.8.88 1.8 1.98 0 1.08-.8 1.92-1.8 1.92s-1.8-.84-1.8-1.92c0-.56.18-1.03.52-1.4.36-.38.79-.58 1.28-.58zm26.36-3.66c.27.27.63.4 1.05.4a1.38 1.38 0 001.44-1.44c0-.41-.15-.76-.42-1.03a1.4 1.4 0 00-1.02-.41c-.42 0-.78.14-1.05.41-.27.27-.4.62-.4 1.03 0 .41.13.77.4 1.04zm-8.54-1.49l-1.07-1.87-3.4 2.25.76 1.28 3.7-1.66zm-27.02-15.97a4.31 4.31 0 00-4.1-2.79c-1.25 0-2.27.42-3.1 1.23a4.15 4.15 0 00-1.23 3.04 4.15 4.15 0 004.32 4.25 4.28 4.28 0 004.1-2.8l-2.35-.68a1.82 1.82 0 01-1.75 1.17 1.9 1.9 0 01-1.89-1.96 1.9 1.9 0 011.9-1.94c.79 0 1.47.47 1.74 1.19l2.36-.7zm9.18 2.33c.05-.24.07-.53.07-.85a4.1 4.1 0 00-1.24-3.04 4.15 4.15 0 00-3.04-1.23c-1.21 0-2.24.42-3.06 1.23a4.15 4.15 0 00-1.23 3.04c0 1.2.42 2.23 1.26 3.04.85.81 1.9 1.2 3.15 1.2 1.73 0 3.17-.84 3.89-2.19l-2.25-.52a2 2 0 01-1.6.74c-.96 0-1.71-.58-1.98-1.42h6.03zm13.7 3.4c.84 0 1.58-.25 2.23-.76v.56h2.32v-8.1h-2.32v.54a3.52 3.52 0 00-2.23-.76c-1.1 0-2 .42-2.74 1.23a4.36 4.36 0 00-1.1 3.04c0 1.2.36 2.23 1.1 3.04.74.81 1.64 1.2 2.74 1.2zm16.29-1.2c.82.8 1.85 1.2 3.1 1.2 1.23 0 2.26-.4 3.09-1.2a4.1 4.1 0 001.24-3.05 4.1 4.1 0 00-1.24-3.04 4.25 4.25 0 00-3.1-1.23c-1.24 0-2.27.42-3.1 1.23a4.15 4.15 0 00-1.22 3.04c0 1.2.42 2.23 1.23 3.04zm-28.9 1h2.35v-4.59c0-.88.64-1.55 1.49-1.55s1.48.67 1.48 1.55v4.59h2.34v-5.2c0-.88-.31-1.62-.9-2.22-.6-.59-1.32-.9-2.2-.9-.92 0-1.66.35-2.21 1.03v-.81h-2.34v8.1zm26.57 0v-8.1h-2.34v8.1h2.34zm-5.7-8.1h-2.34v8.1h2.34v-4.37c0-.96.7-1.66 1.64-1.66.32 0 .6.07.84.22v-2.49c-.05-.02-.14-.02-.27-.02-.95 0-1.69.36-2.21 1.07v-.85zm11.12 6a1.9 1.9 0 01-1.89-1.95c0-1.1.83-1.96 1.9-1.96 1.07 0 1.9.86 1.9 1.96a1.9 1.9 0 01-1.9 1.94zm-20.79-1.97c0-1.08.8-1.94 1.8-1.94 1.01 0 1.8.86 1.8 1.94 0 1.1-.79 1.96-1.8 1.96-1 0-1.8-.86-1.8-1.96zm-18.32-.88a1.98 1.98 0 011.83-1.37 2 2 0 011.9 1.37h-3.73zm31.48-4.72c.27.27.63.4 1.04.4a1.38 1.38 0 001.44-1.44 1.4 1.4 0 00-1.44-1.44c-.41 0-.77.14-1.04.41-.27.27-.4.62-.4 1.03 0 .41.13.77.4 1.04zm-8.4-1.49l-1.07-1.87-3.4 2.25.76 1.28 3.7-1.66z"/>
</svg>